<svg xmlns="http://www.w3.org/2000/svg" viewBox="0 0 100 38" style="enable-background:new 0 0 100 38" xml:space="preserve">
  <style>
    .st0{stroke:#000;stroke-miterlimit:10}.st1{fill:#fff}.st2{fill:none;stroke:#fff;stroke-width:11;stroke-miterlimit:10}.st3{display:none}.st4{display:inline;fill:#fff}.st5{fill:none}.st6,.st7{stroke:#fff}.st6{fill:#fff;stroke-width:2;stroke-miterlimit:10}.st7{fill:none}.st10,.st7,.st8,.st9{stroke-miterlimit:10}.st8{fill:#fff;stroke:#fff}.st10,.st9{stroke:#000;stroke-width:6}.st10{stroke:#575756}.st10,.st11{fill:#575756}.st12{stroke:#fff;stroke-width:2}.st12,.st13,.st14,.st15{fill:none;stroke-miterlimit:10}.st13{display:inline;stroke:#fff;stroke-width:2}.st14,.st15{stroke:#000;stroke-width:4}.st15{stroke:#fff;stroke-width:3}.st16{fill:none;stroke-width:5}.st16,.st17,.st18,.st20,.st21{stroke:#000;stroke-miterlimit:10}.st17{display:none;fill:none;stroke-width:3}.st18,.st20,.st21{fill:#fff}.st20,.st21{fill:none;stroke:#fff;stroke-width:7}.st21{stroke:#000}.st22{stroke:#000;stroke-width:2}.st22,.st23,.st24,.st25{fill:none;stroke-miterlimit:10}.st23{stroke:#fff;stroke-width:4}.st24,.st25{stroke:#000}.st25{stroke:#fff;stroke-width:6}
  </style>
  <g id="Layer_1">
    <path d="M3.3 36.7v.3c0 .1 0 .1.1.2 0 0 .1.1.2.1H4v.2H2v-.2h.4c.1 0 .1 0 .2-.1 0 0 .1-.1.1-.2v-2.9c0-.1 0-.2-.1-.3-.1 0-.2-.1-.4-.1h-.4c-.1 0-.2.1-.2.1-.1.2-.2.2-.2.3s-.1.2-.1.4h-.2c-.1 0 0 0 0 0v-.9s0-.1.1-.1H4.8s.1 0 .1.1V34.5h-.2c0-.2-.1-.3-.1-.4 0-.1-.1-.2-.2-.2-.1-.1-.1-.1-.2-.1h-.3c-.2 0-.3 0-.4.1-.1 0-.1.1-.1.3v2.5zM14.2 33.5s.1 0 0 0c.1 0 .1.1.1.1v.8h-.2c0-.2-.1-.3-.1-.4s-.1-.2-.1-.2c-.1 0-.1-.1-.2-.1h-1.1l-.1.1v1.3h.5c.1 0 .2 0 .2-.1.1 0 .1-.1.1-.2v-.4c0-.1 0 0 .1 0h.1c.1 0 0 0 0 .1v1.4h-.2v-.4c0-.1-.1-.1-.1-.2-.1 0-.1-.1-.2-.1h-.5v1.2c0 .1 0 .2.1.2 0 .1.1.1.1.1s.1.1.2.1H13.8c.1 0 .2-.1.2-.1.1 0 .1-.1.1-.1 0-.1.1-.1.1-.2s0-.2.1-.3h.2c0 .2 0 .3-.1.5v.5H11.1v-.2h.1c.1 0 .2 0 .2-.1.1 0 .1-.1.2-.1 0 0 .1-.1.1-.2v-3c0-.1-.1-.1-.1-.2s-.1-.1-.2-.1H11.1V33h3.1zM23.1 33.4c.2 0 .3 0 .5.1.2 0 .3.1.5.2 0 0 .1 0 .1.1h.1c.1 0 .1 0 .1-.1h.2v1h-.2c-.1-.4-.3-.6-.5-.8-.2-.2-.5-.3-.9-.3-.3 0-.5.1-.7.2-.2.1-.3.3-.4.4-.1.2-.2.4-.2.6s-.1.4-.1.6c0 .2 0 .4.1.7 0 .2.1.4.2.6.1.2.3.3.4.4.2.1.4.2.6.2.2 0 .4 0 .5-.1.2 0 .3-.1.4-.2.1-.1.2-.3.3-.4.1-.2.1-.3.2-.5V36h.2V37.3h-.2v-.1s0-.1-.1-.1H24c-.1 0-.2.1-.3.1-.1 0-.2.1-.3.1h-.6c-.7 0-1.2-.2-1.6-.5-.3-.4-.5-.9-.5-1.5 0-.3.1-.7.2-.9.1-.3.3-.5.5-.7.2-.2.4-.3.7-.4.4.1.7.1 1 .1zM34.4 35.3h.1v-1.2c0-.1 0-.2-.1-.2 0-.1-.1-.1-.2-.1s-.2 0-.3-.1h-.1v-.2h1.9v.2c-.1 0-.2 0-.3.1-.1 0-.1.1-.2.1 0 .1-.1.1-.1.2V37c0 .1 0 .1.1.2 0 0 .1.1.2.1h.4v.2h-2v-.2h.4c.1 0 .1 0 .2-.1 0 0 .1-.1.1-.2v-1.3c0-.1 0-.2-.1-.2h-1.8c-.1 0-.1 0-.1.1v1.3c0 .1 0 .1.1.2 0 0 .1.1.2.1h.4v.2h-2v-.2h.4c.1 0 .1 0 .2-.1 0 0 .1-.1.1-.2V34c0-.1 0-.2-.1-.2 0-.1-.1-.1-.2-.1s-.2 0-.3-.1h-.1v-.2h1.9v.2c-.1 0-.2 0-.3.1-.1 0-.1.1-.2.1 0 .1-.1.1-.1.2v1.1c0 .1 0 .1.1.1h1.8zM42.9 34.1c0-.1 0-.2-.1-.3-.1-.1-.2-.1-.4-.2v-.2h1.1l2.4 2.8c0 .1.1 0 .1 0v-2.5c0-.1 0-.1-.1-.1 0 0 0-.1-.1-.1H45.5v-.2h1.3v.2h-.4s-.1 0-.1.1c0 0 0 .1-.1.2v3.6H45.9l-2.6-3-.1-.1v2.6c0 .1.1.1.1.2 0 0 .1.1.2.1H43.8v.2c0 .1 0 0-.1 0H42.3v-.2h.4c.1 0 .1 0 .2-.1 0 0 .1-.1.1-.2v-2.8zM55.2 37.5c-.6 0-1.1-.2-1.5-.5-.4-.4-.5-.9-.5-1.6 0-.3 0-.6.2-.8.1-.3.2-.5.4-.7.2-.2.4-.3.6-.4.3-.1.5-.2.8-.2.3 0 .6 0 .8.1.2.1.5.2.6.4.2.2.3.4.4.6.1.3.1.5.1.8 0 .3-.1.6-.2.9-.1.3-.3.5-.4.7-.2.2-.4.3-.6.4-.2.3-.4.3-.7.3zm0-.2c.2 0 .4-.1.5-.2.2-.1.3-.2.4-.4.1-.2.2-.4.2-.6.1-.2.1-.4.1-.7 0-.2 0-.5-.1-.7 0-.2-.1-.4-.2-.6-.1-.2-.2-.3-.4-.4-.2-.1-.4-.2-.6-.2-.2 0-.4.1-.6.2-.2.1-.3.2-.4.4-.1.2-.2.4-.2.6 0 .2-.1.4-.1.7 0 .2 0 .5.1.7 0 .2.1.4.2.6.1.2.2.3.4.4s.5.2.7.2zM64.4 34.4v-.3c0-.1 0-.2-.1-.2 0-.1-.1-.1-.2-.1s-.2 0-.3-.1h-.1v-.2h1.9v.2c-.1 0-.2 0-.3.1-.1 0-.1.1-.2.1 0 .1-.1.1-.1.2V36.8c0 .1 0 .2.1.2 0 .1.1.1.1.1.1 0 .1.1.2.1H66.3c.1 0 .2-.1.2-.1.1 0 .1-.1.1-.1 0-.1.1-.1.1-.2s0-.2.1-.3h.2c0 .2 0 .3-.1.5v.5H63.6v-.2h.1c.1 0 .2 0 .3-.1.1 0 .1 0 .2-.1 0 0 .1-.1.1-.2v-2.5h.1zM75.6 37.5c-.6 0-1.1-.2-1.5-.5-.4-.4-.5-.9-.5-1.6 0-.3 0-.6.2-.8.1-.3.2-.5.4-.7.2-.2.4-.3.6-.4.3-.1.5-.2.8-.2.3 0 .6 0 .8.1.2.1.5.2.6.4.2.2.3.4.4.6.1.3.1.5.1.8 0 .3-.1.6-.2.9-.1.3-.3.5-.4.7-.2.2-.4.3-.6.4-.2.3-.4.3-.7.3zm0-.2c.2 0 .4-.1.5-.2.2-.1.3-.2.4-.4.1-.2.2-.4.2-.6.1-.2.1-.4.1-.7 0-.2 0-.5-.1-.7 0-.2-.1-.4-.2-.6-.1-.2-.2-.3-.4-.4-.2-.1-.4-.2-.6-.2-.2 0-.4.1-.6.2-.2.1-.3.2-.4.4-.1.2-.2.4-.2.6 0 .2-.1.4-.1.7 0 .2 0 .5.1.7 0 .2.1.4.2.6.1.2.2.3.4.4s.5.2.7.2zM87.9 37s0 .1 0 0l-.3.3c-.1.1-.2.1-.3.2-.1 0-.3.1-.4.1h-.6c-.3 0-.6 0-.9-.1-.3-.1-.5-.2-.6-.4-.2-.2-.3-.4-.4-.7-.1-.3-.1-.6-.1-.9 0-.3.1-.6.2-.9.1-.3.3-.5.4-.7.2-.2.4-.3.7-.4.3-.1.5-.1.9-.1.2 0 .4 0 .6.1.2.1.3.1.5.2.1 0 .2.1.2.1.1 0 .1 0 .1-.1h.2V34.9c0 .1 0 0-.1 0h-.1v-.1c-.1-.3-.2-.6-.5-.8-.2-.2-.6-.3-.9-.3-.2 0-.4.1-.6.2-.2.1-.3.2-.4.4-.1.2-.2.4-.2.6s-.1.4-.1.6c0 .3 0 .6.1.8.1.2.1.4.3.6.1.2.3.3.4.4.2.1.4.1.6.1h.4c.1 0 .2-.1.3-.1.1-.1.2-.1.2-.2.1-.1.1-.2.1-.4v-.3c0-.1 0-.1-.1-.2 0 0-.1-.1-.2-.1h-.4v-.2h1.7v.2H88.3s-.1 0-.1.1v.8zM96.9 36.7v.3c0 .1 0 .1.1.2s.1.1.2.1h.4v.2h-2v-.2h.4c.1 0 .1 0 .2-.1s.1-.1.1-.2v-1.1l-.5-1s-.1-.1-.1-.2-.1-.2-.2-.3c-.1-.1-.2-.2-.2-.4-.1-.1-.1-.2-.2-.2-.1-.1-.1-.1-.2-.1h-.3v-.2H96.4v.2h-.1c-.2 0-.3 0-.3.1-.1 0-.1.1-.1.2s0 .2.1.3l.7 1.3h.1c.1-.2.2-.4.3-.5.1-.2.2-.3.3-.5.1-.1.1-.3.2-.4 0-.1.1-.2.1-.2v-.1s0-.1-.1-.1h-.4v-.2H98.6v.2c-.1 0-.3.1-.4.2-.2 0-.2.1-.3.2-.1.1-.1.2-.2.3l-.9 1.5v.7z"/>
    <g>
      <path d="M25.9 17.5c0-1-.3-1.9-.9-2.5-.6-.7-1.6-1.3-3.1-1.8-2.1-.7-3.7-1.5-4.9-2.5-1.1-1-1.7-2.4-1.7-4.2 0-1.8.6-3.2 1.9-4.4S20.1.4 22 .4c2.1 0 3.7.6 5 1.9 1.3 1.3 1.9 2.9 1.8 4.8v.1h-3c0-1.3-.4-2.4-1-3.2-.7-.8-1.6-1.2-2.8-1.2-1.1 0-2 .3-2.6 1-.6.7-.9 1.6-.9 2.6s.3 1.8 1 2.4c.6.6 1.7 1.2 3.3 1.8 2 .7 3.6 1.5 4.7 2.6s1.6 2.5 1.6 4.2c0 1.8-.6 3.3-1.9 4.4-1.3 1.1-2.9 1.6-5 1.6-2 0-3.7-.6-5.2-1.8-1.5-1.2-2.2-2.9-2.1-5v-.1h3c0 1.5.4 2.7 1.2 3.4.8.8 1.8 1.1 3 1.1s2.1-.3 2.7-1c.8-.5 1.1-1.4 1.1-2.5zM46.6 16.4c.1 2.3-.5 4-1.8 5.2-1.3 1.2-3 1.8-5.3 1.8s-4.1-.7-5.5-2.2c-1.4-1.5-2.1-3.5-2.1-6.2V8.8c0-2.7.7-4.7 2-6.2S37.1.4 39.3.4c2.3 0 4.1.6 5.4 1.8 1.3 1.2 1.9 2.9 1.9 5.2v.1h-3c0-1.6-.4-2.8-1-3.5-.7-.8-1.7-1.1-3.1-1.1-1.4 0-2.4.5-3.2 1.6-.8 1-1.1 2.5-1.1 4.5v6.3c0 2 .4 3.5 1.2 4.5.8 1 1.9 1.6 3.3 1.6s2.4-.4 3.1-1.1c.7-.7 1-1.9 1-3.6h2.8zM65.1 15.1c0 2.7-.7 4.7-2.2 6.2-1.4 1.5-3.4 2.2-5.8 2.2s-4.3-.7-5.7-2.2c-1.4-1.5-2.1-3.6-2.1-6.2V8.9c0-2.7.7-4.7 2.1-6.2C52.8 1.2 54.7.4 57.1.4c2.4 0 4.3.7 5.8 2.2 1.4 1.5 2.2 3.6 2.2 6.2v6.3zM62 8.8c0-2-.4-3.4-1.3-4.5-.8-1-2-1.5-3.6-1.5-1.5 0-2.7.5-3.5 1.5-.8 1-1.2 2.5-1.2 4.5V15c0 2 .4 3.5 1.2 4.5.8 1 2 1.5 3.5 1.5 1.6 0 2.7-.5 3.6-1.5S62 17 62 15.1V8.8zM71.9 13.5v9.7h-3.1V.7h6.6c2.2 0 3.8.6 5 1.7 1.2 1.1 1.8 2.7 1.8 4.7 0 1.2-.3 2.2-.8 3.1-.6.9-1.3 1.6-2.4 2 1.2.4 2 1 2.5 1.9.5.9.8 2 .8 3.4v2c0 .7.1 1.3.2 1.9.1.6.4 1.1.7 1.4v.4H80c-.4-.3-.6-.9-.7-1.6-.1-.7-.2-1.4-.2-2.2v-1.9c0-1.3-.3-2.2-.9-3-.6-.7-1.4-1.1-2.4-1.1h-3.9zm0-2.4h3.3c1.3 0 2.3-.3 2.9-1 .6-.7.9-1.7.9-2.9 0-1.3-.3-2.3-.9-3-.6-.7-1.5-1.1-2.7-1.1h-3.5v8zM97.1 12.8h-7.6v8.1h9v2.4H86.4V.7h12v2.4h-8.9v7.2h7.6v2.5z"/>
    </g>
    <path style="fill:none;stroke:#000;stroke-width:3;stroke-miterlimit:10" d="M1.3 22.8H13"/>
  </g>
</svg>
