<?xml version="1.0" encoding="utf-8"?>
<!-- Generator: Adobe Illustrator 22.0.0, SVG Export Plug-In . SVG Version: 6.00 Build 0)  -->
<svg version="1.1" xmlns="http://www.w3.org/2000/svg" xmlns:xlink="http://www.w3.org/1999/xlink" x="0px" y="0px"
	 viewBox="0 0 100 38" style="enable-background:new 0 0 100 38;" xml:space="preserve">
<style type="text/css">
	.st0{stroke:#000000;stroke-miterlimit:10;}
	.st1{fill:#FFFFFF;}
	.st2{fill:none;stroke:#FFFFFF;stroke-width:11;stroke-miterlimit:10;}
	.st3{display:none;}
	.st4{display:inline;fill:#FFFFFF;}
	.st5{fill:none;}
	.st6{fill:#FFFFFF;stroke:#FFFFFF;stroke-width:2;stroke-miterlimit:10;}
	.st7{fill:none;stroke:#FFFFFF;stroke-miterlimit:10;}
	.st8{fill:#FFFFFF;stroke:#FFFFFF;stroke-miterlimit:10;}
	.st9{stroke:#000000;stroke-width:6;stroke-miterlimit:10;}
	.st10{fill:#575756;stroke:#575756;stroke-width:6;stroke-miterlimit:10;}
	.st11{fill:#575756;}
	.st12{fill:none;stroke:#FFFFFF;stroke-width:2;stroke-miterlimit:10;}
	.st13{display:inline;fill:none;stroke:#FFFFFF;stroke-width:2;stroke-miterlimit:10;}
	.st14{fill:none;stroke:#000000;stroke-width:4;stroke-miterlimit:10;}
	.st15{fill:none;stroke:#FFFFFF;stroke-width:3;stroke-miterlimit:10;}
	.st16{fill:none;stroke:#000000;stroke-width:5;stroke-miterlimit:10;}
	.st17{display:none;fill:none;stroke:#000000;stroke-width:3;stroke-miterlimit:10;}
	.st18{fill:#FFFFFF;stroke:#000000;stroke-miterlimit:10;}
	.st19{fill:none;stroke:#000000;stroke-width:3;stroke-miterlimit:10;}
	.st20{fill:none;stroke:#FFFFFF;stroke-width:7;stroke-miterlimit:10;}
	.st21{fill:none;stroke:#000000;stroke-width:7;stroke-miterlimit:10;}
	.st22{fill:none;stroke:#000000;stroke-width:2;stroke-miterlimit:10;}
	.st23{fill:none;stroke:#FFFFFF;stroke-width:4;stroke-miterlimit:10;}
	.st24{fill:none;stroke:#000000;stroke-miterlimit:10;}
	.st25{fill:none;stroke:#FFFFFF;stroke-width:6;stroke-miterlimit:10;}
</style>
<g id="Layer_4">
</g>
<g id="Layer_1">
	<g>
		<g>
			<path d="M3.3,36.7c0,0.1,0,0.2,0,0.3c0,0.1,0,0.1,0.1,0.2c0,0,0.1,0.1,0.2,0.1c0.1,0,0.2,0,0.3,0c0,0,0,0,0.1,0c0,0,0,0,0,0.1
				s0,0,0,0.1c0,0,0,0-0.1,0c-0.2,0-0.3,0-0.5,0c-0.1,0-0.3,0-0.4,0c-0.2,0-0.3,0-0.5,0c-0.2,0-0.3,0-0.4,0c0,0,0,0-0.1,0
				c0,0,0,0,0-0.1s0,0,0-0.1c0,0,0,0,0.1,0c0.1,0,0.2,0,0.3,0c0.1,0,0.1,0,0.2-0.1c0,0,0.1-0.1,0.1-0.2c0-0.1,0-0.2,0-0.3v-2.6
				c0-0.1,0-0.2-0.1-0.3c-0.1,0-0.2-0.1-0.4-0.1c-0.1,0-0.3,0-0.4,0c-0.1,0-0.2,0.1-0.2,0.1C1.5,34,1.4,34,1.4,34.1
				s-0.1,0.2-0.1,0.4c0,0,0,0,0,0c0,0,0,0-0.1,0c0,0,0,0-0.1,0s0,0,0,0c0-0.1,0-0.3,0-0.4c0-0.2,0-0.3,0-0.5c0,0,0-0.1,0.1-0.1
				c0.1,0,0.1,0,0.2,0h3.2c0.1,0,0.1,0,0.2,0c0,0,0.1,0,0.1,0.1c0,0,0,0.1,0,0.2c0,0.1,0,0.1,0,0.2s0,0.2,0,0.3c0,0.1,0,0.2,0,0.2
				c0,0,0,0,0,0c0,0,0,0-0.1,0c0,0,0,0-0.1,0c0,0,0,0,0,0c0-0.2-0.1-0.3-0.1-0.4c0-0.1-0.1-0.2-0.2-0.2c-0.1-0.1-0.1-0.1-0.2-0.1
				c-0.1,0-0.2,0-0.3,0c-0.2,0-0.3,0-0.4,0.1c-0.1,0-0.1,0.1-0.1,0.3V36.7z"/>
			<path d="M14.2,33.5C14.2,33.5,14.3,33.5,14.2,33.5c0.1,0,0.1,0.1,0.1,0.1c0,0,0,0.1,0,0.1c0,0.1,0,0.1,0,0.2c0,0.2,0,0.3,0,0.5
				c0,0,0,0,0,0s0,0-0.1,0c0,0,0,0-0.1,0c0,0,0,0,0,0c0-0.2-0.1-0.3-0.1-0.4s-0.1-0.2-0.1-0.2c-0.1,0-0.1-0.1-0.2-0.1
				c-0.1,0-0.2,0-0.3,0H13c-0.1,0-0.2,0-0.3,0c-0.1,0-0.1,0-0.1,0c0,0-0.1,0.1-0.1,0.1c0,0.1,0,0.1,0,0.2v1c0,0.1,0,0.1,0,0.1
				c0,0,0,0,0.1,0c0.2,0,0.3,0,0.4,0c0.1,0,0.2,0,0.2-0.1c0.1,0,0.1-0.1,0.1-0.2c0-0.1,0-0.2,0-0.3c0,0,0,0,0-0.1s0,0,0.1,0
				c0,0,0,0,0.1,0s0,0,0,0.1c0,0.1,0,0.1,0,0.2c0,0,0,0.1,0,0.1c0,0,0,0.1,0,0.2c0,0.1,0,0.1,0,0.2c0,0.1,0,0.2,0,0.3
				c0,0.1,0,0.2,0,0.4c0,0,0,0,0,0c0,0,0,0-0.1,0c0,0,0,0-0.1,0c0,0,0,0,0-0.1c0-0.1,0-0.2,0-0.3c0-0.1-0.1-0.1-0.1-0.2
				c-0.1,0-0.1-0.1-0.2-0.1c-0.1,0-0.3,0-0.4,0c0,0,0,0-0.1,0c0,0,0,0,0,0.1v0.8c0,0.1,0,0.2,0,0.3c0,0.1,0,0.2,0.1,0.2
				c0,0.1,0.1,0.1,0.1,0.1s0.1,0.1,0.2,0.1c0.1,0,0.1,0,0.2,0c0.1,0,0.1,0,0.2,0c0.1,0,0.2,0,0.3,0c0.1,0,0.1,0,0.2,0
				c0.1,0,0.2-0.1,0.2-0.1c0.1,0,0.1-0.1,0.1-0.1c0-0.1,0.1-0.1,0.1-0.2c0-0.1,0-0.2,0.1-0.3c0,0,0,0,0,0c0,0,0.1,0,0.1,0
				c0,0,0.1,0,0.1,0c0,0,0,0,0,0c0,0.2,0,0.3-0.1,0.5c0,0.1,0,0.3,0,0.4c0,0,0,0,0,0.1c0,0-0.1,0-0.1,0h-2.2c-0.2,0-0.3,0-0.5,0
				c-0.1,0-0.3,0-0.4,0c0,0-0.1,0-0.1,0c0,0,0,0,0-0.1c0,0,0,0,0-0.1c0,0,0,0,0.1,0c0.1,0,0.2,0,0.2-0.1c0.1,0,0.1-0.1,0.2-0.1
				c0,0,0.1-0.1,0.1-0.2c0-0.1,0-0.1,0-0.2v-2.3c0-0.1,0-0.2,0-0.3c0-0.1,0-0.2,0-0.2c0-0.1-0.1-0.1-0.1-0.2c0-0.1-0.1-0.1-0.2-0.1
				c0,0-0.1,0-0.1,0c0,0-0.1,0-0.1,0c0,0,0,0-0.1,0c0,0,0,0,0-0.1c0,0,0,0,0-0.1c0,0,0,0,0.1,0c0.1,0,0.3,0,0.4,0c0.1,0,0.2,0,0.4,0
				H14.2z"/>
			<path d="M23.1,33.4c0.2,0,0.3,0,0.5,0.1c0.2,0,0.3,0.1,0.5,0.2c0,0,0.1,0,0.1,0.1c0,0,0.1,0,0.1,0c0.1,0,0.1,0,0.1-0.1
				c0,0,0,0,0,0c0,0,0,0,0.1,0c0,0,0,0,0.1,0c0,0,0,0,0,0c0,0.1,0,0.1,0,0.2c0,0.1,0,0.1,0,0.2c0,0.1,0,0.2,0,0.3s0,0.2,0,0.3
				c0,0,0,0,0,0c0,0,0,0-0.1,0c0,0-0.1,0-0.1,0c0,0,0,0,0,0c-0.1-0.4-0.3-0.6-0.5-0.8c-0.2-0.2-0.5-0.3-0.9-0.3
				c-0.3,0-0.5,0.1-0.7,0.2c-0.2,0.1-0.3,0.3-0.4,0.4c-0.1,0.2-0.2,0.4-0.2,0.6s-0.1,0.4-0.1,0.6c0,0.2,0,0.4,0.1,0.7
				c0,0.2,0.1,0.4,0.2,0.6c0.1,0.2,0.3,0.3,0.4,0.4c0.2,0.1,0.4,0.2,0.6,0.2c0.2,0,0.4,0,0.5-0.1c0.2,0,0.3-0.1,0.4-0.2
				c0.1-0.1,0.2-0.3,0.3-0.4c0.1-0.2,0.1-0.3,0.2-0.5c0,0,0,0,0-0.1c0,0,0,0,0.1,0c0,0,0,0,0.1,0c0,0,0,0,0,0c0,0.1,0,0.2,0,0.2
				c0,0.1,0,0.2,0,0.2c0,0.1,0,0.3,0,0.4c0,0.1,0,0.3,0,0.4c0,0,0,0,0,0.1c0,0,0,0-0.1,0s0,0-0.1,0c0,0,0,0,0,0c0,0,0-0.1,0-0.1
				c0,0,0-0.1-0.1-0.1c0,0-0.1,0-0.1,0c0,0-0.1,0-0.1,0c-0.1,0-0.2,0.1-0.3,0.1c-0.1,0-0.2,0.1-0.3,0.1c-0.1,0-0.2,0-0.3,0
				c-0.1,0-0.2,0-0.3,0c-0.7,0-1.2-0.2-1.6-0.5c-0.3-0.4-0.5-0.9-0.5-1.5c0-0.3,0.1-0.7,0.2-0.9c0.1-0.3,0.3-0.5,0.5-0.7
				c0.2-0.2,0.4-0.3,0.7-0.4C22.5,33.4,22.8,33.4,23.1,33.4z"/>
			<path d="M34.4,35.3c0,0,0.1,0,0.1,0c0,0,0,0,0-0.1v-0.8c0-0.1,0-0.2,0-0.3s0-0.2-0.1-0.2c0-0.1-0.1-0.1-0.2-0.1
				c-0.1,0-0.2,0-0.3-0.1c0,0,0,0-0.1,0c0,0,0,0,0-0.1c0,0,0,0,0-0.1c0,0,0,0,0.1,0c0.1,0,0.3,0,0.4,0c0.2,0,0.3,0,0.5,0
				c0.1,0,0.2,0,0.2,0c0.1,0,0.1,0,0.2,0c0.1,0,0.1,0,0.2,0c0.1,0,0.2,0,0.2,0c0,0,0,0,0.1,0c0,0,0,0,0,0.1c0,0,0,0,0,0.1
				c0,0,0,0,0,0c-0.1,0-0.2,0-0.3,0.1c-0.1,0-0.1,0.1-0.2,0.1c0,0.1-0.1,0.1-0.1,0.2c0,0.1,0,0.2,0,0.3v2.3c0,0.1,0,0.2,0,0.3
				c0,0.1,0,0.1,0.1,0.2c0,0,0.1,0.1,0.2,0.1c0.1,0,0.2,0,0.3,0c0,0,0,0,0.1,0c0,0,0,0,0,0.1s0,0,0,0.1c0,0,0,0-0.1,0
				c-0.2,0-0.3,0-0.5,0c-0.1,0-0.3,0-0.4,0c-0.2,0-0.3,0-0.5,0s-0.3,0-0.4,0c0,0,0,0-0.1,0c0,0,0,0,0-0.1s0,0,0-0.1c0,0,0,0,0.1,0
				c0.1,0,0.2,0,0.3,0c0.1,0,0.1,0,0.2-0.1c0,0,0.1-0.1,0.1-0.2c0-0.1,0-0.2,0-0.3v-1c0-0.1,0-0.2-0.1-0.2h-1.8
				c-0.1,0-0.1,0-0.1,0.1v1c0,0.1,0,0.2,0,0.3c0,0.1,0,0.1,0.1,0.2c0,0,0.1,0.1,0.2,0.1c0.1,0,0.2,0,0.3,0c0,0,0,0,0.1,0
				c0,0,0,0,0,0.1s0,0,0,0.1c0,0,0,0-0.1,0c-0.2,0-0.3,0-0.5,0c-0.1,0-0.3,0-0.4,0c-0.2,0-0.3,0-0.5,0c-0.2,0-0.3,0-0.4,0
				c0,0,0,0-0.1,0c0,0,0,0,0-0.1s0,0,0-0.1c0,0,0,0,0.1,0c0.1,0,0.2,0,0.3,0c0.1,0,0.1,0,0.2-0.1c0,0,0.1-0.1,0.1-0.2
				c0-0.1,0-0.2,0-0.3v-2.3c0-0.1,0-0.2,0-0.3c0-0.1,0-0.2-0.1-0.2c0-0.1-0.1-0.1-0.2-0.1c-0.1,0-0.2,0-0.3-0.1c0,0,0,0-0.1,0
				c0,0,0,0,0-0.1c0,0,0,0,0-0.1c0,0,0,0,0.1,0c0.1,0,0.3,0,0.4,0c0.2,0,0.3,0,0.5,0c0.1,0,0.2,0,0.2,0c0.1,0,0.1,0,0.2,0
				c0.1,0,0.1,0,0.2,0c0.1,0,0.2,0,0.2,0c0,0,0,0,0.1,0c0,0,0,0,0,0.1c0,0,0,0,0,0.1c0,0,0,0,0,0c-0.1,0-0.2,0-0.3,0.1
				c-0.1,0-0.1,0.1-0.2,0.1c0,0.1-0.1,0.1-0.1,0.2c0,0.1,0,0.2,0,0.3v0.8c0,0.1,0,0.1,0.1,0.1H34.4z"/>
			<path d="M42.9,34.1c0-0.1,0-0.2-0.1-0.3c-0.1-0.1-0.2-0.1-0.4-0.2c0,0,0,0,0,0c0,0,0,0,0-0.1c0,0,0,0,0-0.1c0,0,0,0,0.1,0
				c0,0,0.1,0,0.2,0c0.1,0,0.2,0,0.3,0c0.1,0,0.2,0,0.3,0c0.1,0,0.1,0,0.2,0l2.4,2.8c0,0.1,0.1,0,0.1,0v-1.5c0-0.1,0-0.1,0-0.2
				c0-0.1,0-0.2,0-0.3c0-0.1,0-0.2,0-0.3c0-0.1,0-0.1,0-0.2c0-0.1,0-0.1-0.1-0.1c0,0,0-0.1-0.1-0.1c0,0-0.1,0-0.1,0
				c-0.1,0-0.1,0-0.2,0c0,0,0,0,0,0c0,0,0,0,0-0.1c0,0,0,0,0-0.1c0,0,0,0,0,0c0.1,0,0.2,0,0.3,0c0.1,0,0.2,0,0.3,0
				c0.1,0,0.2,0,0.3,0c0.1,0,0.2,0,0.3,0c0,0,0,0,0.1,0c0,0,0,0,0,0.1c0,0,0,0,0,0.1c0,0,0,0-0.1,0c-0.1,0-0.1,0-0.2,0
				c0,0-0.1,0-0.1,0c0,0-0.1,0-0.1,0.1c0,0,0,0.1-0.1,0.2c0,0,0,0.1,0,0.2s0,0.2,0,0.3c0,0.1,0,0.2,0,0.3c0,0.1,0,0.2,0,0.2v2.6
				c0,0,0,0,0,0s0,0-0.1,0c0,0-0.1,0-0.1,0c0,0,0,0-0.1,0l-2.6-3c0,0-0.1-0.1-0.1-0.1c0,0,0,0,0,0.1v2.2c0,0.1,0,0.3,0,0.3
				c0,0.1,0.1,0.1,0.1,0.2c0,0,0.1,0.1,0.2,0.1c0.1,0,0.1,0,0.2,0c0,0,0,0,0.1,0c0,0,0,0,0,0.1s0,0,0,0.1s0,0-0.1,0
				c-0.1,0-0.2,0-0.3,0c-0.1,0-0.2,0-0.4,0c-0.2,0-0.3,0-0.4,0c-0.1,0-0.2,0-0.3,0c0,0,0,0,0,0c0,0,0,0,0-0.1c0,0,0,0,0-0.1
				c0,0,0,0,0.1,0c0.1,0,0.2,0,0.3,0c0.1,0,0.1,0,0.2-0.1c0,0,0.1-0.1,0.1-0.2c0-0.1,0-0.2,0-0.3V34.1z"/>
			<path d="M55.2,37.5c-0.6,0-1.1-0.2-1.5-0.5c-0.4-0.4-0.5-0.9-0.5-1.6c0-0.3,0-0.6,0.2-0.8c0.1-0.3,0.2-0.5,0.4-0.7
				c0.2-0.2,0.4-0.3,0.6-0.4c0.3-0.1,0.5-0.2,0.8-0.2c0.3,0,0.6,0,0.8,0.1c0.2,0.1,0.5,0.2,0.6,0.4c0.2,0.2,0.3,0.4,0.4,0.6
				c0.1,0.3,0.1,0.5,0.1,0.8c0,0.3-0.1,0.6-0.2,0.9c-0.1,0.3-0.3,0.5-0.4,0.7c-0.2,0.2-0.4,0.3-0.6,0.4
				C55.7,37.5,55.5,37.5,55.2,37.5z M55.2,37.3c0.2,0,0.4-0.1,0.5-0.2c0.2-0.1,0.3-0.2,0.4-0.4c0.1-0.2,0.2-0.4,0.2-0.6
				c0.1-0.2,0.1-0.4,0.1-0.7c0-0.2,0-0.5-0.1-0.7c0-0.2-0.1-0.4-0.2-0.6c-0.1-0.2-0.2-0.3-0.4-0.4c-0.2-0.1-0.4-0.2-0.6-0.2
				c-0.2,0-0.4,0.1-0.6,0.2c-0.2,0.1-0.3,0.2-0.4,0.4c-0.1,0.2-0.2,0.4-0.2,0.6c0,0.2-0.1,0.4-0.1,0.7c0,0.2,0,0.5,0.1,0.7
				c0,0.2,0.1,0.4,0.2,0.6c0.1,0.2,0.2,0.3,0.4,0.4S55,37.3,55.2,37.3z"/>
			<path d="M64.4,34.4c0-0.1,0-0.2,0-0.3c0-0.1,0-0.2-0.1-0.2c0-0.1-0.1-0.1-0.2-0.1c-0.1,0-0.2,0-0.3-0.1c0,0,0,0-0.1,0
				c0,0,0,0,0-0.1c0,0,0,0,0-0.1c0,0,0,0,0.1,0c0.1,0,0.3,0,0.4,0s0.3,0,0.5,0c0.1,0,0.2,0,0.2,0c0.1,0,0.1,0,0.2,0
				c0.1,0,0.1,0,0.2,0c0.1,0,0.2,0,0.2,0c0,0,0,0,0.1,0c0,0,0,0,0,0.1c0,0,0,0,0,0.1c0,0,0,0,0,0c-0.1,0-0.2,0-0.3,0.1
				c-0.1,0-0.1,0.1-0.2,0.1c0,0.1-0.1,0.1-0.1,0.2c0,0.1,0,0.2,0,0.3v2.1c0,0.1,0,0.2,0,0.3c0,0.1,0,0.2,0.1,0.2
				c0,0.1,0.1,0.1,0.1,0.1c0.1,0,0.1,0.1,0.2,0.1c0.1,0,0.1,0,0.2,0c0.1,0,0.1,0,0.2,0c0.1,0,0.2,0,0.3,0c0.1,0,0.1,0,0.2,0
				c0.1,0,0.2-0.1,0.2-0.1c0.1,0,0.1-0.1,0.1-0.1c0-0.1,0.1-0.1,0.1-0.2c0-0.1,0-0.2,0.1-0.3c0,0,0,0,0,0c0,0,0,0,0.1,0
				c0,0,0.1,0,0.1,0c0,0,0,0,0,0c0,0.2,0,0.3-0.1,0.5c0,0.1,0,0.3,0,0.4c0,0,0,0,0,0.1c0,0-0.1,0-0.1,0h-2.2c-0.2,0-0.3,0-0.5,0
				c-0.1,0-0.3,0-0.4,0c0,0,0,0-0.1,0c0,0,0,0,0-0.1s0,0,0-0.1c0,0,0,0,0.1,0c0.1,0,0.2,0,0.3-0.1c0.1,0,0.1,0,0.2-0.1
				c0,0,0.1-0.1,0.1-0.2c0-0.1,0-0.2,0-0.3V34.4L64.4,34.4z"/>
			<path d="M75.6,37.5c-0.6,0-1.1-0.2-1.5-0.5c-0.4-0.4-0.5-0.9-0.5-1.6c0-0.3,0-0.6,0.2-0.8c0.1-0.3,0.2-0.5,0.4-0.7
				c0.2-0.2,0.4-0.3,0.6-0.4c0.3-0.1,0.5-0.2,0.8-0.2c0.3,0,0.6,0,0.8,0.1c0.2,0.1,0.5,0.2,0.6,0.4c0.2,0.2,0.3,0.4,0.4,0.6
				c0.1,0.3,0.1,0.5,0.1,0.8c0,0.3-0.1,0.6-0.2,0.9c-0.1,0.3-0.3,0.5-0.4,0.7c-0.2,0.2-0.4,0.3-0.6,0.4
				C76.1,37.5,75.9,37.5,75.6,37.5z M75.6,37.3c0.2,0,0.4-0.1,0.5-0.2c0.2-0.1,0.3-0.2,0.4-0.4c0.1-0.2,0.2-0.4,0.2-0.6
				c0.1-0.2,0.1-0.4,0.1-0.7c0-0.2,0-0.5-0.1-0.7c0-0.2-0.1-0.4-0.2-0.6c-0.1-0.2-0.2-0.3-0.4-0.4c-0.2-0.1-0.4-0.2-0.6-0.2
				c-0.2,0-0.4,0.1-0.6,0.2c-0.2,0.1-0.3,0.2-0.4,0.4c-0.1,0.2-0.2,0.4-0.2,0.6c0,0.2-0.1,0.4-0.1,0.7c0,0.2,0,0.5,0.1,0.7
				c0,0.2,0.1,0.4,0.2,0.6c0.1,0.2,0.2,0.3,0.4,0.4S75.4,37.3,75.6,37.3z"/>
			<path d="M87.9,37C87.9,37,87.9,37.1,87.9,37c-0.1,0.1-0.2,0.2-0.3,0.3c-0.1,0.1-0.2,0.1-0.3,0.2c-0.1,0-0.3,0.1-0.4,0.1
				c-0.2,0-0.4,0-0.6,0c-0.3,0-0.6,0-0.9-0.1c-0.3-0.1-0.5-0.2-0.6-0.4c-0.2-0.2-0.3-0.4-0.4-0.7c-0.1-0.3-0.1-0.6-0.1-0.9
				c0-0.3,0.1-0.6,0.2-0.9c0.1-0.3,0.3-0.5,0.4-0.7c0.2-0.2,0.4-0.3,0.7-0.4c0.3-0.1,0.5-0.1,0.9-0.1c0.2,0,0.4,0,0.6,0.1
				c0.2,0.1,0.3,0.1,0.5,0.2c0.1,0,0.2,0.1,0.2,0.1c0.1,0,0.1,0,0.1-0.1c0,0,0,0,0,0c0,0,0,0,0.1,0c0,0,0,0,0.1,0c0,0,0,0,0,0
				c0,0.2,0,0.3,0,0.5c0,0.2,0,0.4,0,0.6c0,0,0,0,0,0.1s0,0-0.1,0c0,0,0,0-0.1,0c0,0,0,0,0-0.1c-0.1-0.3-0.2-0.6-0.5-0.8
				c-0.2-0.2-0.6-0.3-0.9-0.3c-0.2,0-0.4,0.1-0.6,0.2c-0.2,0.1-0.3,0.2-0.4,0.4c-0.1,0.2-0.2,0.4-0.2,0.6s-0.1,0.4-0.1,0.6
				c0,0.3,0,0.6,0.1,0.8c0.1,0.2,0.1,0.4,0.3,0.6c0.1,0.2,0.3,0.3,0.4,0.4c0.2,0.1,0.4,0.1,0.6,0.1c0.2,0,0.3,0,0.4,0
				c0.1,0,0.2-0.1,0.3-0.1c0.1-0.1,0.2-0.1,0.2-0.2c0.1-0.1,0.1-0.2,0.1-0.4c0-0.1,0-0.2,0-0.3c0-0.1,0-0.1-0.1-0.2
				c0,0-0.1-0.1-0.2-0.1c-0.1,0-0.2,0-0.3,0c0,0,0,0-0.1,0c0,0,0,0,0-0.1c0,0,0,0,0-0.1c0,0,0,0,0.1,0c0.1,0,0.3,0,0.4,0
				c0.2,0,0.3,0,0.4,0c0.1,0,0.1,0,0.2,0c0,0,0.1,0,0.2,0c0.1,0,0.1,0,0.2,0c0.1,0,0.1,0,0.2,0c0,0,0,0,0,0c0,0,0,0,0,0.1
				c0,0,0,0,0,0.1c0,0,0,0-0.1,0c-0.1,0-0.2,0-0.2,0c0,0-0.1,0-0.1,0.1c0,0,0,0.1,0,0.1c0,0.1,0,0.1,0,0.2V37z"/>
			<path d="M96.9,36.7c0,0.1,0,0.2,0,0.3c0,0.1,0,0.1,0.1,0.2s0.1,0.1,0.2,0.1c0.1,0,0.2,0,0.3,0c0,0,0,0,0.1,0c0,0,0,0,0,0.1
				s0,0,0,0.1c0,0,0,0-0.1,0c-0.2,0-0.3,0-0.5,0c-0.1,0-0.3,0-0.4,0c-0.2,0-0.3,0-0.5,0c-0.2,0-0.3,0-0.4,0c0,0,0,0-0.1,0
				c0,0,0,0,0-0.1s0,0,0-0.1c0,0,0,0,0.1,0c0.1,0,0.2,0,0.3,0c0.1,0,0.1,0,0.2-0.1s0.1-0.1,0.1-0.2c0-0.1,0-0.2,0-0.3v-0.8l-0.5-1
				c0,0-0.1-0.1-0.1-0.2s-0.1-0.2-0.2-0.3c-0.1-0.1-0.2-0.2-0.2-0.4c-0.1-0.1-0.1-0.2-0.2-0.2c-0.1-0.1-0.1-0.1-0.2-0.1
				c-0.1,0-0.2,0-0.3,0c0,0,0,0,0,0c0,0,0,0,0-0.1c0,0,0,0,0-0.1c0,0,0,0,0,0c0.2,0,0.3,0,0.5,0c0.1,0,0.3,0,0.4,0
				c0.1,0,0.3,0,0.4,0c0.1,0,0.3,0,0.4,0c0,0,0,0,0.1,0c0,0,0,0,0,0.1c0,0,0,0,0,0.1c0,0,0,0-0.1,0c-0.2,0-0.3,0-0.3,0.1
				c-0.1,0-0.1,0.1-0.1,0.2c0,0.1,0,0.2,0.1,0.3l0.7,1.3c0,0,0,0,0,0c0,0,0,0,0.1,0c0.1-0.2,0.2-0.4,0.3-0.5
				c0.1-0.2,0.2-0.3,0.3-0.5c0.1-0.1,0.1-0.3,0.2-0.4c0-0.1,0.1-0.2,0.1-0.2c0-0.1,0-0.1,0-0.1c0,0,0-0.1-0.1-0.1c0,0-0.1,0-0.1,0
				c-0.1,0-0.1,0-0.2,0c0,0,0,0-0.1,0c0,0,0,0,0-0.1c0,0,0,0,0-0.1c0,0,0,0,0,0c0.1,0,0.3,0,0.4,0c0.1,0,0.2,0,0.3,0
				c0.1,0,0.2,0,0.3,0c0.1,0,0.2,0,0.3,0c0,0,0,0,0.1,0c0,0,0,0,0,0.1c0,0,0,0,0,0.1c0,0,0,0,0,0c-0.1,0-0.3,0.1-0.4,0.2
				C98,34,98,34.1,97.9,34.2c-0.1,0.1-0.1,0.2-0.2,0.3l-0.9,1.5V36.7z"/>
		</g>
		<g>
			<path d="M25.9,17.5c0-1-0.3-1.9-0.9-2.5c-0.6-0.7-1.6-1.3-3.1-1.8c-2.1-0.7-3.7-1.5-4.9-2.5c-1.1-1-1.7-2.4-1.7-4.2
				c0-1.8,0.6-3.2,1.9-4.4s2.9-1.7,4.8-1.7c2.1,0,3.7,0.6,5,1.9c1.3,1.3,1.9,2.9,1.8,4.8l0,0.1h-3c0-1.3-0.4-2.4-1-3.2
				c-0.7-0.8-1.6-1.2-2.8-1.2c-1.1,0-2,0.3-2.6,1c-0.6,0.7-0.9,1.6-0.9,2.6c0,1,0.3,1.8,1,2.4c0.6,0.6,1.7,1.2,3.3,1.8
				c2,0.7,3.6,1.5,4.7,2.6c1.1,1.1,1.6,2.5,1.6,4.2c0,1.8-0.6,3.3-1.9,4.4c-1.3,1.1-2.9,1.6-5,1.6c-2,0-3.7-0.6-5.2-1.8
				c-1.5-1.2-2.2-2.9-2.1-5l0-0.1h3c0,1.5,0.4,2.7,1.2,3.4c0.8,0.8,1.8,1.1,3,1.1c1.2,0,2.1-0.3,2.7-1
				C25.6,19.5,25.9,18.6,25.9,17.5z"/>
			<path d="M46.6,16.4L46.6,16.4c0.1,2.3-0.5,4-1.8,5.2c-1.3,1.2-3,1.8-5.3,1.8c-2.3,0-4.1-0.7-5.5-2.2c-1.4-1.5-2.1-3.5-2.1-6.2
				V8.8c0-2.7,0.7-4.7,2-6.2c1.3-1.5,3.2-2.2,5.4-2.2c2.3,0,4.1,0.6,5.4,1.8c1.3,1.2,1.9,2.9,1.9,5.2l0,0.1h-3c0-1.6-0.4-2.8-1-3.5
				c-0.7-0.8-1.7-1.1-3.1-1.1c-1.4,0-2.4,0.5-3.2,1.6c-0.8,1-1.1,2.5-1.1,4.5v6.3c0,2,0.4,3.5,1.2,4.5c0.8,1,1.9,1.6,3.3,1.6
				c1.4,0,2.4-0.4,3.1-1.1c0.7-0.7,1-1.9,1-3.6H46.6z"/>
			<path d="M65.1,15.1c0,2.7-0.7,4.7-2.2,6.2c-1.4,1.5-3.4,2.2-5.8,2.2c-2.4,0-4.3-0.7-5.7-2.2c-1.4-1.5-2.1-3.6-2.1-6.2V8.9
				c0-2.7,0.7-4.7,2.1-6.2c1.4-1.5,3.3-2.3,5.7-2.3c2.4,0,4.3,0.7,5.8,2.2c1.4,1.5,2.2,3.6,2.2,6.2V15.1z M62,8.8
				c0-2-0.4-3.4-1.3-4.5c-0.8-1-2-1.5-3.6-1.5c-1.5,0-2.7,0.5-3.5,1.5c-0.8,1-1.2,2.5-1.2,4.5v6.2c0,2,0.4,3.5,1.2,4.5
				c0.8,1,2,1.5,3.5,1.5c1.6,0,2.7-0.5,3.6-1.5S62,17,62,15.1V8.8z"/>
			<path d="M71.9,13.5v9.7h-3.1V0.7h6.6c2.2,0,3.8,0.6,5,1.7c1.2,1.1,1.8,2.7,1.8,4.7c0,1.2-0.3,2.2-0.8,3.1c-0.6,0.9-1.3,1.6-2.4,2
				c1.2,0.4,2,1,2.5,1.9c0.5,0.9,0.8,2,0.8,3.4v2c0,0.7,0.1,1.3,0.2,1.9c0.1,0.6,0.4,1.1,0.7,1.4v0.4h-3.2c-0.4-0.3-0.6-0.9-0.7-1.6
				c-0.1-0.7-0.2-1.4-0.2-2.2v-1.9c0-1.3-0.3-2.2-0.9-3c-0.6-0.7-1.4-1.1-2.4-1.1H71.9z M71.9,11.1h3.3c1.3,0,2.3-0.3,2.9-1
				C78.7,9.4,79,8.4,79,7.2c0-1.3-0.3-2.3-0.9-3c-0.6-0.7-1.5-1.1-2.7-1.1h-3.5V11.1z"/>
			<path d="M97.1,12.8h-7.6v8.1h9v2.4H86.4V0.7h12v2.4h-8.9v7.2h7.6V12.8z"/>
		</g>
		<line class="st19" x1="1.3" y1="22.8" x2="13" y2="22.8"/>
	</g>
</g>
<g id="Ebene_2">
</g>
<g id="Ebene_3">
</g>
</svg>
